<?xml version="1.0" standalone="no"?>
<!DOCTYPE svg PUBLIC "-//W3C//DTD SVG 20010904//EN"
 "http://www.w3.org/TR/2001/REC-SVG-20010904/DTD/svg10.dtd">
<svg version="1.0" xmlns="http://www.w3.org/2000/svg"
 width="512.000000pt" height="512.000000pt" viewBox="0 0 512.000000 512.000000"
 preserveAspectRatio="xMidYMid meet">
<metadata>
Created by potrace 1.14, written by Peter Selinger 2001-2017
</metadata>
<g transform="translate(0.000000,512.000000) scale(0.100000,-0.100000)"
fill="#000000" stroke="none">
<path d="M2150 4496 c-83 -26 -124 -68 -145 -146 -24 -89 -1 -167 63 -220 28
-23 39 -27 54 -19 26 14 22 39 -13 75 -53 55 -50 151 6 208 47 47 151 36 213
-22 51 -48 61 -76 57 -152 -8 -146 -135 -247 -318 -254 -111 -4 -206 23 -392
113 -127 62 -267 128 -300 142 -99 43 -272 64 -380 47 -75 -11 -185 -64 -247
-118 -58 -50 -129 -157 -154 -230 -26 -77 -26 -244 0 -320 29 -85 93 -187 146
-235 32 -29 88 -101 70 -90 -8 5 -38 23 -66 41 -106 68 -247 93 -352 65 -126
-35 -205 -199 -204 -427 1 -243 91 -423 247 -494 74 -34 122 -45 235 -56 109
-10 135 -13 145 -13 6 -1 17 -17 24 -36 21 -60 107 -207 140 -242 38 -39 72
-41 81 -5 5 23 6 23 21 5 9 -10 22 -28 28 -40 10 -20 9 -23 -16 -29 -16 -3
-42 -10 -60 -15 -64 -20 -163 -11 -288 25 -103 30 -132 35 -205 32 -99 -4
-172 -29 -246 -85 -94 -70 -159 -203 -123 -247 35 -43 81 -32 141 32 46 48
121 73 213 70 85 -3 235 -35 241 -51 11 -28 -15 -63 -50 -69 -75 -14 -127
-100 -120 -196 12 -155 103 -268 262 -327 56 -20 77 -33 85 -52 35 -80 137
-197 301 -346 124 -113 303 -191 447 -194 71 -2 81 0 102 21 l24 24 54 -19
c153 -53 377 -81 514 -64 100 12 206 65 231 114 6 13 13 21 15 19 7 -8 192
-20 279 -19 108 1 150 18 174 67 17 36 17 38 -2 74 -13 26 -35 45 -72 64 l-52
28 38 1 c22 0 46 2 54 3 8 2 61 9 118 16 188 23 315 -11 532 -140 137 -82 154
-90 186 -84 67 12 89 81 56 176 -29 82 -84 157 -179 240 l-41 36 31 15 c84 39
182 60 282 60 86 0 113 -5 193 -32 51 -17 101 -31 111 -31 26 0 61 31 66 58
11 58 -83 179 -191 248 -74 48 -195 90 -271 96 -18 1 -33 5 -33 9 0 11 168 93
230 112 87 27 143 34 227 31 188 -7 252 -6 308 6 143 30 255 125 257 218 1 60
-3 74 -31 101 -44 43 -95 48 -170 16 -64 -27 -179 -46 -168 -28 4 6 17 11 29
11 64 0 203 68 274 134 98 90 109 219 22 264 -58 30 -112 19 -195 -39 -86 -61
-179 -70 -322 -32 -70 18 -81 30 -28 29 70 -2 209 23 280 50 137 51 240 148
254 238 11 71 -43 135 -117 139 -44 2 -82 -13 -131 -51 -53 -43 -113 -61 -196
-62 -74 0 -94 3 -207 29 l-68 16 89 22 c49 13 114 35 144 50 46 24 66 28 139
28 93 0 159 17 231 62 95 59 167 166 155 230 -9 44 -34 58 -111 61 -33 2 -67
5 -75 7 -8 2 -28 7 -45 11 -43 11 -117 36 -137 47 -10 5 -24 9 -32 9 -23 0
-29 19 -9 27 37 13 93 76 93 106 0 57 -20 74 -100 84 -25 3 -66 13 -92 23 -48
18 -192 109 -185 116 5 6 27 10 99 18 79 10 103 34 99 99 -2 35 -117 130 -216
179 -46 23 -134 50 -152 47 -5 -1 -23 -1 -40 0 -27 1 -35 7 -47 34 -28 66 -90
107 -164 107 -52 0 -121 -45 -176 -117 -41 -53 -51 -60 -103 -72 -31 -7 -103
-29 -160 -48 -58 -19 -106 -33 -108 -31 -3 2 0 20 5 39 16 55 14 133 -4 162
-32 47 -102 62 -167 34 -57 -25 -93 -70 -138 -179 -51 -119 -105 -203 -141
-218 -94 -38 -302 -34 -510 10 -229 49 -318 61 -425 59 -183 -3 -358 -53 -442
-124 -85 -72 -123 -180 -123 -346 0 -100 -1 -108 -22 -121 -61 -39 -159 -53
-265 -37 -15 3 -24 26 -19 54 9 62 -44 163 -136 258 -101 103 -135 171 -142
278 -8 148 75 288 214 356 50 25 65 27 170 28 136 0 199 -18 425 -122 214 -99
215 -99 290 -121 87 -26 134 -33 210 -33 220 0 380 103 430 276 21 71 15 166
-14 223 -53 105 -197 171 -301 138z"/>
</g>
</svg>
